<svg xmlns="http://www.w3.org/2000/svg" xmlns:xlink="http://www.w3.org/1999/xlink" width="500" zoomAndPan="magnify" viewBox="0 0 375 374.999991" height="500" preserveAspectRatio="xMidYMid meet" version="1.0"><rect x="-37.5" width="450" fill="#ffffff" y="-37.499999" height="449.999989" fill-opacity="1"/><rect x="-37.5" width="450" fill="#ffffff" y="-37.499999" height="449.999989" fill-opacity="1"/><rect x="-37.5" width="450" fill="#ffffff" y="-37.499999" height="449.999989" fill-opacity="1"/><path fill="#1f09ff" d="M 208.742188 322.359375 L 177.585938 322.359375 L 177.585938 197.308594 L 207.734375 197.308594 C 218.972656 197.308594 228.535156 198.554688 236.421875 201.054688 C 244.308594 203.539062 250.8125 206.851562 255.925781 210.992188 C 261.027344 215.132812 265.03125 219.839844 267.929688 225.121094 C 270.820312 230.398438 272.832031 235.839844 273.972656 241.445312 C 275.097656 247.058594 275.660156 252.480469 275.660156 257.707031 C 275.660156 265.523438 274.554688 273.261719 272.339844 280.921875 C 270.136719 288.582031 266.480469 295.53125 261.363281 301.765625 C 256.261719 308.003906 249.425781 312.992188 240.851562 316.730469 C 232.277344 320.484375 221.574219 322.359375 208.742188 322.359375 M 196.660156 213.980469 L 196.660156 305.511719 L 210.800781 305.511719 C 219.191406 305.511719 226.257812 304.207031 231.996094 301.59375 C 237.730469 298.976562 242.328125 295.433594 245.785156 290.957031 C 249.242188 286.480469 251.742188 281.433594 253.285156 275.816406 C 254.8125 270.203125 255.578125 264.441406 255.578125 258.542969 C 255.578125 250.496094 254.160156 243.09375 251.320312 236.339844 C 248.484375 229.597656 243.804688 224.183594 237.277344 220.09375 C 230.75 216.019531 221.925781 213.980469 210.800781 213.980469 Z M 316.007812 324.046875 C 311.242188 324.046875 306.527344 323.453125 301.867188 322.261719 C 297.21875 321.070312 293.074219 319.597656 289.433594 317.835938 C 285.808594 316.078125 283.089844 314.292969 281.277344 312.480469 L 290.289062 296.3125 C 291.542969 297.335938 293.507812 298.667969 296.175781 300.3125 C 298.84375 301.953125 301.929688 303.402344 305.441406 304.660156 C 308.960938 305.902344 312.484375 306.523438 316.007812 306.523438 C 321.796875 306.523438 326.644531 305.164062 330.558594 302.445312 C 334.480469 299.730469 336.441406 295.757812 336.441406 290.527344 C 336.441406 286.21875 335.304688 282.648438 333.023438 279.816406 C 330.757812 276.980469 327.777344 274.484375 324.089844 272.324219 C 320.398438 270.175781 316.429688 268.105469 312.179688 266.113281 C 307.921875 264.132812 303.859375 261.894531 300 259.398438 C 295.574219 256.445312 291.714844 252.53125 288.425781 247.65625 C 285.132812 242.777344 283.488281 236.480469 283.488281 228.769531 C 283.488281 221.175781 285.21875 214.9375 288.675781 210.058594 C 292.132812 205.179688 296.730469 201.527344 302.46875 199.09375 C 308.207031 196.648438 314.480469 195.425781 321.292969 195.425781 C 326.730469 195.425781 331.378906 195.992188 335.238281 197.132812 C 339.097656 198.269531 342.335938 199.628906 344.949219 201.207031 C 347.566406 202.800781 349.613281 204.222656 351.089844 205.480469 L 342.054688 220.949219 C 340.125 218.902344 337.234375 217.007812 333.375 215.261719 C 329.515625 213.5 325.203125 212.621094 320.4375 212.621094 C 314.867188 212.621094 310.4375 213.894531 307.148438 216.445312 C 303.859375 218.992188 302.214844 222.765625 302.214844 227.761719 C 302.214844 232.183594 303.691406 235.957031 306.644531 239.074219 C 309.597656 242.195312 313.371094 245.027344 317.96875 247.578125 C 322.566406 250.125 327.304688 252.707031 332.1875 255.320312 C 337.058594 257.921875 341.371094 260.980469 345.125 264.5 C 348.183594 267.230469 350.792969 270.632812 352.953125 274.710938 C 355.117188 278.800781 356.199219 283.394531 356.199219 288.492188 C 356.199219 296.203125 354.402344 302.722656 350.816406 308.054688 C 347.242188 313.386719 342.453125 317.382812 336.441406 320.050781 C 330.421875 322.714844 323.609375 324.046875 316.007812 324.046875 " fill-opacity="1" fill-rule="nonzero"/><path stroke-linecap="butt" transform="matrix(0.750441, 0, 0, 0.749824, -277.034363, -7.028508)" fill="none" stroke-linejoin="miter" d="M 400.846668 273.013683 L 537.615237 273.013683 " stroke="#1f09ff" stroke-width="5" stroke-opacity="1" stroke-miterlimit="4"/><path stroke-linecap="butt" transform="matrix(0.750441, 0, 0, 0.749824, -195.547043, -107.804722)" fill="none" stroke-linejoin="miter" d="M 469.229632 346.513838 L 469.229632 199.510512 " stroke="#1f09ff" stroke-width="5" stroke-opacity="1" stroke-miterlimit="4"/><path stroke-linecap="butt" transform="matrix(0.750441, 0, 0, 0.749824, -258.935983, -75.493838)" fill-opacity="1" fill="#000000" fill-rule="nonzero" stroke-linejoin="miter" d="M 518.375582 324.318064 L 420.079191 221.710598 " stroke="#1f09ff" stroke-width="5" stroke-opacity="1" stroke-miterlimit="4"/><path stroke-linecap="butt" transform="matrix(0.750441, 0, 0, 0.749824, -250.978573, 55.656376)" fill-opacity="1" fill="#000000" fill-rule="nonzero" stroke-linejoin="miter" d="M 518.380281 221.708229 L 420.083891 324.320905 " stroke="#1f09ff" stroke-width="5" stroke-opacity="1" stroke-miterlimit="4"/><path stroke-linecap="butt" transform="matrix(0.750441, 0, 0, 0.749824, -132.487194, -79.025128)" fill-opacity="1" fill="#000000" fill-rule="nonzero" stroke-linejoin="miter" d="M 519.667062 220.361376 L 418.799266 325.667394 " stroke="#1f09ff" stroke-width="5" stroke-opacity="1" stroke-miterlimit="4"/></svg>